<svg xmlns="http://www.w3.org/2000/svg" xmlns:xlink="http://www.w3.org/1999/xlink" width="320" zoomAndPan="magnify" viewBox="0 0 240 239.999995" height="320" preserveAspectRatio="xMidYMid meet" version="1.0"><defs><clipPath id="5520792389"><path d="M 0 2 L 240 2 L 240 233.828125 L 0 233.828125 Z M 0 2 " clip-rule="nonzero"/></clipPath><clipPath id="57749ded69"><path d="M 73.109375 51.09375 L 194 51.09375 L 194 205.429688 L 73.109375 205.429688 Z M 73.109375 51.09375 " clip-rule="nonzero"/></clipPath><clipPath id="4a73a6be4f"><path d="M 96.242188 195.851562 C 96.242188 195.851562 105.417969 202.335938 121.355469 204.628906 C 137.289062 206.921875 155.902344 204.25 175.53125 192.414062 C 195.164062 180.585938 193.890625 160.738281 193.890625 157.816406 C 193.890625 154.890625 189.683594 134.917969 182.542969 126.011719 C 175.40625 117.109375 162.148438 104.390625 162.019531 94.085938 C 161.894531 83.777344 163.425781 53.378906 126.96875 51.34375 C 90.511719 49.3125 75.59375 83.019531 74.320312 88.363281 C 73.050781 93.707031 82.992188 114.5625 81.585938 120.796875 C 80.179688 127.03125 68.714844 159.210938 76.484375 173.84375 C 84.265625 188.46875 96.242188 195.851562 96.242188 195.851562 Z M 96.242188 195.851562 " clip-rule="nonzero"/></clipPath></defs><g clip-path="url(#5520792389)"><path fill="#fffef8" d="M 194.203125 67.039062 C 187.414062 68.5 180.5 70.71875 172.898438 73.902344 C 172.199219 70.851562 171.285156 68.011719 170.140625 65.324219 C 165.792969 55.121094 158.421875 47.710938 148.21875 43.300781 C 144.957031 41.890625 141.46875 40.851562 137.691406 40.164062 C 138.003906 39.019531 138.324219 37.886719 138.644531 36.75 C 139.148438 34.96875 139.644531 33.179688 140.113281 31.390625 C 141.394531 26.53125 141.453125 21.5625 140.292969 16.625 C 138.804688 10.328125 135.125 5.667969 129.933594 3.507812 C 124.761719 1.355469 118.898438 2.015625 113.421875 5.363281 C 110.929688 6.882812 108.46875 8.878906 106.117188 11.292969 C 104.238281 13.222656 102.535156 15.171875 100.882812 17.0625 C 100.660156 17.316406 100.445312 17.570312 100.222656 17.820312 C 99.476562 17.503906 98.71875 17.183594 97.960938 16.871094 C 93.230469 14.949219 88.316406 14.230469 83.34375 14.71875 C 73.996094 15.648438 66.65625 22.160156 64.648438 31.3125 C 63.539062 36.355469 63.84375 41.277344 65.546875 45.9375 C 66.976562 49.832031 69.101562 53.554688 71.882812 57.007812 C 72.945312 58.328125 74.097656 59.605469 75.363281 60.871094 C 74.78125 61.503906 74.246094 62.117188 73.734375 62.742188 C 71.941406 64.910156 70.441406 67 69.140625 69.136719 C 67.652344 71.570312 66.410156 74.011719 65.457031 76.386719 C 64.5 78.785156 63.703125 81.402344 63.101562 84.1875 C 62.921875 85.015625 62.78125 85.824219 62.664062 86.613281 C 46.011719 85.566406 29.757812 88.628906 14.308594 95.730469 C 11.339844 97.097656 8.359375 98.898438 5.175781 101.238281 C 2.625 103.113281 0.289062 105.46875 -1.570312 108.019531 C -5.234375 113.058594 -6.507812 118.835938 -5.144531 124.277344 C -3.792969 129.714844 0.03125 134.210938 5.621094 136.949219 C 7.117188 137.683594 8.730469 138.308594 10.441406 138.835938 C 8.238281 140.972656 6.171875 143.109375 4.230469 145.253906 C 1.292969 148.503906 -2.445312 152.925781 -5.324219 158.28125 C -6.632812 160.722656 -8.402344 164.507812 -8.59375 169.234375 C -8.945312 177.789062 -3.628906 184.921875 4.632812 186.976562 C 8.78125 188.007812 12.902344 188.117188 16.886719 187.308594 L 17.824219 187.125 C 18.714844 186.945312 19.644531 186.761719 20.605469 186.546875 C 20.566406 186.714844 20.523438 186.886719 20.484375 187.050781 C 19.675781 190.664062 19.355469 193.667969 19.476562 196.519531 C 19.90625 206.640625 26.425781 213.976562 36.496094 215.660156 C 39.121094 216.101562 41.96875 216.226562 45.195312 216.046875 C 55.113281 215.492188 64.65625 213.664062 73.890625 211.890625 L 75.246094 211.632812 C 81.074219 210.519531 87.050781 209.371094 92.867188 207.789062 C 92.375 208.417969 91.863281 209.042969 91.320312 209.660156 C 91.195312 209.800781 91.066406 209.941406 90.941406 210.082031 C 90.300781 210.792969 89.425781 211.765625 88.589844 213.011719 C 85.328125 217.894531 85.921875 224.335938 90.035156 228.667969 C 94.0625 232.921875 100.390625 233.773438 105.324219 230.917969 C 107.589844 232.816406 110.339844 233.78125 113.128906 233.78125 C 115.507812 233.78125 117.917969 233.078125 120.074219 231.652344 C 124.691406 228.59375 126.789062 223.074219 125.289062 217.917969 C 125.25 217.785156 125.207031 217.644531 125.160156 217.507812 C 142.859375 218.570312 160.085938 214.742188 176.640625 206.074219 C 175.664062 209.414062 175.933594 212.84375 177.4375 215.816406 C 178.996094 218.925781 181.703125 221.191406 185.058594 222.183594 C 189.609375 223.535156 194.226562 222.230469 197.609375 218.84375 C 200.84375 218.835938 203.96875 217.578125 206.441406 215.128906 C 208.984375 212.605469 210.234375 209.339844 210.144531 206.023438 C 214.207031 202.285156 215.476562 196.421875 213.113281 191.355469 C 210.71875 186.21875 205.453125 183.453125 199.988281 184.164062 C 201.566406 181.460938 202.464844 179.117188 203.585938 175.667969 C 203.980469 175.617188 204.375 175.5625 204.769531 175.511719 C 207.550781 175.140625 210.421875 174.761719 213.335938 174.25 C 217.1875 173.574219 221.136719 172.714844 225.417969 171.617188 C 229.515625 170.5625 233.199219 168.691406 236.34375 166.050781 C 243.839844 159.773438 245.949219 150.46875 241.859375 141.773438 C 240.914062 139.761719 239.75 138.035156 238.535156 136.46875 C 241.421875 133.679688 244.277344 130.496094 246.539062 126.4375 C 252.070312 116.523438 249.980469 105.394531 241.222656 98.078125 C 238.15625 95.515625 234.46875 93.535156 229.949219 92.023438 C 229.285156 91.800781 228.625 91.597656 227.960938 91.414062 C 230.527344 83.652344 228.296875 77.960938 226.601562 75.117188 C 223.375 69.6875 217.46875 66.257812 210.40625 65.695312 C 205.371094 65.355469 200.078125 65.777344 194.203125 67.039062 Z M 194.203125 67.039062 " fill-opacity="1" fill-rule="nonzero"/></g><g clip-path="url(#57749ded69)"><g clip-path="url(#4a73a6be4f)"><path fill="#fcf6f0" d="M 258.167969 89.664062 C 260.449219 86.953125 256.804688 83.132812 254.210938 85.714844 C 241.6875 98.171875 229.0625 110.519531 216.355469 122.777344 C 215.574219 121.308594 213.378906 120.589844 211.835938 121.96875 C 195.519531 136.453125 179.125 150.855469 162.398438 164.871094 C 161.605469 165.308594 160.816406 165.753906 160.019531 166.191406 C 174.878906 151.984375 189.488281 137.519531 203.816406 122.792969 C 211.789062 114.601562 219.523438 106.015625 224.945312 95.878906 C 226.476562 93.023438 222.9375 90.425781 220.550781 92.496094 C 214.398438 97.839844 208.265625 103.195312 202.128906 108.554688 C 204.09375 106.351562 201.273438 102.527344 198.621094 104.300781 C 197.957031 104.738281 197.304688 105.183594 196.640625 105.621094 C 196.113281 105.683594 195.570312 105.90625 195.066406 106.320312 C 194.226562 107.003906 193.386719 107.683594 192.539062 108.367188 C 188.886719 110.808594 185.234375 113.25 181.59375 115.691406 C 186.5 110.632812 191.503906 105.660156 196.5625 100.761719 C 201.394531 96.082031 206.285156 91.457031 211.195312 86.855469 C 215.277344 83.117188 219.335938 79.355469 223.359375 75.550781 C 225.976562 73.0625 222.035156 69.160156 219.402344 71.601562 C 216.140625 74.621094 212.875 77.648438 209.609375 80.683594 C 211.164062 78.644531 212.601562 76.527344 213.871094 74.316406 C 214.347656 73.488281 214.296875 72.558594 213.929688 71.78125 C 220.273438 65.332031 226.535156 58.800781 232.707031 52.191406 C 234.765625 49.988281 232.007812 45.867188 229.316406 47.804688 C 217.769531 56.144531 206.117188 64.335938 194.390625 72.417969 C 193.570312 71.03125 191.527344 70.238281 189.90625 71.601562 C 182.136719 78.132812 174.386719 84.675781 166.652344 91.25 C 150.25 102.230469 133.734375 113.042969 117.160156 123.773438 C 133.511719 111.542969 149.179688 98.285156 164.921875 85.367188 C 173.367188 78.4375 181.875 71.59375 190.589844 65.011719 C 192.121094 63.871094 193.652344 62.726562 195.175781 61.585938 C 198.027344 59.460938 195.257812 54.625 192.351562 56.761719 C 190.925781 57.808594 189.511719 58.867188 188.097656 59.9375 C 169.433594 73.863281 150.792969 87.820312 132.464844 102.179688 C 138.917969 96.25 145.351562 90.300781 151.753906 84.3125 C 159.929688 76.664062 167.902344 68.789062 174.453125 59.664062 C 176.371094 56.984375 172.304688 54.230469 170.058594 56.28125 C 164.90625 60.984375 159.699219 65.628906 154.453125 70.222656 C 156.027344 68.308594 157.589844 66.378906 159.113281 64.410156 C 159.917969 63.371094 159.992188 62.273438 159.621094 61.398438 C 163.886719 57.710938 168.117188 53.980469 172.28125 50.171875 C 174.59375 48.058594 171.546875 43.992188 168.890625 45.789062 C 151.671875 57.4375 134.308594 68.894531 116.832031 80.171875 C 123.941406 73.777344 130.917969 67.230469 137.691406 60.480469 C 138.488281 59.691406 138.628906 58.699219 138.367188 57.832031 C 141.1875 55.160156 143.953125 52.421875 146.628906 49.601562 C 149.140625 46.953125 145.394531 43.359375 142.671875 45.652344 C 135.265625 51.878906 127.851562 58.105469 120.476562 64.375 C 105.703125 73.210938 90.917969 82.050781 76.144531 90.886719 C 85.355469 82.035156 94.644531 73.265625 104.042969 64.605469 C 112.148438 57.140625 120.320312 49.75 128.550781 42.425781 C 130.082031 41.0625 129.460938 39.199219 128.144531 38.285156 C 128.460938 36.140625 126.15625 33.691406 124.054688 35.308594 C 104.625 50.238281 84.886719 64.773438 64.878906 78.917969 C 70.714844 74.019531 76.582031 69.152344 82.480469 64.328125 C 85.730469 61.761719 88.984375 59.1875 92.234375 56.621094 C 100.832031 49.824219 109.433594 43.035156 118.03125 36.238281 C 120.492188 34.292969 117.167969 29.929688 114.640625 31.851562 C 102.59375 41 90.746094 50.402344 79.035156 59.96875 C 73.519531 64.328125 67.992188 68.6875 62.476562 73.046875 C 69.726562 66 77.042969 59.023438 84.441406 52.132812 C 91.425781 45.625 98.472656 39.183594 105.582031 32.808594 C 108.304688 30.367188 104.371094 26.644531 101.625 28.863281 C 100.636719 29.65625 99.65625 30.457031 98.667969 31.25 C 98.851562 29.101562 95.984375 27.132812 93.855469 28.980469 C 67.539062 51.828125 41.226562 74.667969 14.910156 97.511719 C 7.40625 104.019531 -0.0898438 110.535156 -7.589844 117.042969 C -10.34375 119.429688 -6.386719 123.207031 -3.636719 120.988281 C 6.597656 112.722656 16.835938 104.464844 27.066406 96.199219 C 21.273438 102.3125 15.519531 108.480469 9.800781 114.667969 C 5.660156 117.941406 1.515625 121.210938 -2.617188 124.484375 C -3.957031 125.539062 -3.644531 127.207031 -2.660156 128.277344 C -8.996094 135.273438 -15.289062 142.316406 -21.527344 149.394531 C -23.550781 151.6875 -20.984375 155.476562 -18.136719 153.777344 C -10.515625 149.222656 -2.898438 144.667969 4.722656 140.109375 C 3.84375 140.816406 2.980469 141.527344 2.105469 142.234375 C -0.699219 144.488281 3.28125 148.414062 6.058594 146.179688 C 11.125 142.097656 16.171875 138.003906 21.214844 133.894531 C 18.820312 137.105469 16.515625 140.378906 14.320312 143.730469 C 12.761719 146.113281 15.808594 148.925781 18.152344 147.554688 C 18.8125 147.160156 19.476562 146.765625 20.136719 146.382812 C 20.605469 146.285156 21.074219 146.054688 21.511719 145.660156 C 21.617188 145.570312 21.71875 145.476562 21.816406 145.386719 C 31.050781 139.941406 40.265625 134.449219 49.441406 128.898438 C 45.714844 132.644531 42.035156 136.4375 38.398438 140.273438 C 36.132812 142.320312 33.871094 144.378906 31.632812 146.460938 C 22.257812 155.160156 13.175781 164.167969 4.566406 173.621094 C 2.550781 175.839844 5.25 179.949219 7.957031 178.003906 C 16.984375 171.511719 25.980469 164.992188 34.957031 158.429688 C 33.351562 160.101562 31.742188 161.769531 30.160156 163.453125 C 28.054688 165.695312 30.777344 169.605469 33.550781 167.839844 C 39.699219 163.914062 45.8125 159.921875 51.878906 155.871094 C 51.746094 156.300781 51.613281 156.722656 51.492188 157.164062 C 50.988281 159.015625 52.882812 161.445312 54.9375 160.597656 C 57.09375 159.707031 59.226562 158.773438 61.347656 157.816406 C 60.402344 158.757812 59.457031 159.699219 58.519531 160.640625 C 56.34375 162.527344 54.164062 164.425781 51.984375 166.3125 C 51.410156 166.800781 51.167969 167.410156 51.144531 168.03125 C 42.4375 176.75 33.722656 185.460938 25.015625 194.179688 C 22.441406 196.753906 26.269531 200.449219 28.96875 198.128906 C 39.46875 189.113281 51.257812 181.746094 62.796875 174.148438 C 73.875 166.851562 84.960938 159.550781 96.042969 152.257812 C 87.773438 159.523438 79.519531 166.808594 71.296875 174.117188 C 68.542969 176.558594 72.492188 180.207031 75.25 178.0625 C 107.523438 152.960938 139.796875 127.867188 172.066406 102.765625 C 157.707031 116.589844 142.835938 129.871094 127.464844 142.566406 C 119.957031 148.769531 112.328125 154.839844 104.585938 160.761719 C 102.710938 162.191406 103.316406 164.820312 104.773438 165.769531 C 102.503906 167.417969 100.230469 169.054688 97.945312 170.6875 C 85.921875 179.296875 73.765625 187.726562 61.515625 196.019531 C 58.558594 198.023438 61.339844 202.855469 64.34375 200.84375 C 65.226562 200.25 66.113281 199.664062 66.996094 199.070312 C 66.179688 199.714844 65.363281 200.363281 64.542969 201 C 62.046875 202.957031 65.289062 207.085938 67.933594 205.386719 C 82.316406 196.160156 96.519531 186.679688 110.542969 176.945312 C 107.714844 178.976562 104.890625 181.011719 102.058594 183.027344 C 92.441406 189.878906 82.769531 196.644531 73.09375 203.410156 C 70.632812 205.132812 72.03125 209.488281 75.25 208.515625 C 82.960938 206.179688 90.585938 203.605469 98.117188 200.8125 C 89.4375 208.777344 80.730469 216.707031 72.007812 224.625 C 69.347656 227.050781 73.3125 230.984375 75.964844 228.574219 C 88.324219 217.316406 100.726562 206.097656 113.152344 194.914062 C 115.367188 193.996094 117.585938 193.066406 119.785156 192.117188 C 119.003906 193.988281 118.320312 195.878906 117.828125 197.808594 C 112.566406 202.582031 107.277344 207.320312 101.96875 212.039062 C 99.625 214.117188 102.757812 218.28125 105.359375 216.425781 C 109.390625 213.546875 113.382812 210.632812 117.355469 207.683594 C 117.382812 207.828125 117.398438 207.976562 117.429688 208.117188 C 117.785156 209.835938 120.082031 210.71875 121.539062 209.785156 C 123.070312 208.796875 124.597656 207.789062 126.121094 206.789062 C 117.398438 214.667969 108.847656 222.867188 103.238281 233.3125 C 102.214844 235.226562 103.457031 237.007812 105.105469 237.371094 C 105.003906 237.460938 104.898438 237.550781 104.800781 237.648438 C 102.453125 239.710938 105.597656 243.902344 108.191406 242.03125 C 126.457031 228.863281 144.71875 215.699219 162.980469 202.527344 C 162.742188 202.789062 162.503906 203.046875 162.265625 203.308594 C 154.980469 211.222656 147.632812 219.089844 140.234375 226.902344 C 137.699219 229.582031 141.429688 233.039062 144.191406 230.851562 C 169.828125 210.511719 195.519531 190.128906 219.226562 167.535156 C 225.910156 161.167969 232.417969 154.617188 238.722656 147.878906 C 240.78125 145.675781 238.015625 141.558594 235.332031 143.496094 C 224.097656 151.597656 212.867188 159.691406 201.632812 167.796875 C 207.820312 160.730469 213.960938 153.628906 220.058594 146.484375 C 226.082031 139.429688 232.042969 132.328125 237.972656 125.203125 C 241.257812 122.160156 244.550781 119.128906 247.839844 116.085938 C 250.113281 113.96875 247.050781 109.808594 244.449219 111.699219 C 238.492188 116.027344 232.492188 120.308594 226.4375 124.519531 C 228.074219 122.859375 229.710938 121.191406 231.332031 119.503906 C 240.617188 109.835938 249.554688 99.886719 258.167969 89.664062 Z M 211.625 141.328125 C 212.300781 140.875 212.980469 140.421875 213.65625 139.96875 C 199.3125 153.117188 184.910156 166.199219 170.445312 179.222656 C 178.164062 171.726562 185.734375 164.070312 192.917969 156.09375 C 196.464844 153 199.964844 149.851562 203.4375 146.675781 C 206.183594 144.910156 208.910156 143.132812 211.625 141.328125 Z M 151.738281 182.136719 C 146.695312 185.878906 141.585938 189.527344 136.433594 193.105469 C 146.308594 185.367188 156.042969 177.449219 165.664062 169.398438 C 166.855469 168.738281 168.035156 168.070312 169.21875 167.402344 C 166.28125 170.132812 163.335938 172.863281 160.394531 175.585938 C 157.523438 177.796875 154.644531 179.984375 151.738281 182.136719 Z M 201.714844 116.921875 C 194.160156 124.789062 186.417969 132.492188 178.671875 140.164062 C 166.503906 152.207031 154.183594 164.085938 141.699219 175.792969 C 138.398438 177.441406 135.082031 179.058594 131.734375 180.640625 C 132.628906 179.015625 133.535156 177.398438 134.472656 175.785156 C 153.3125 158.941406 172.238281 142.171875 191.230469 125.5 C 195.796875 121.488281 200.375 117.488281 204.949219 113.488281 C 203.894531 114.636719 202.808594 115.789062 201.714844 116.921875 Z M 164.035156 100.792969 C 165.085938 99.894531 166.132812 99.003906 167.179688 98.105469 C 167.953125 97.453125 168.726562 96.800781 169.492188 96.140625 C 169.753906 95.941406 170.007812 95.738281 170.265625 95.539062 C 175.414062 92.097656 180.542969 88.628906 185.667969 85.152344 C 181.761719 88.183594 177.851562 91.226562 173.949219 94.261719 C 170.648438 96.445312 167.335938 98.617188 164.035156 100.792969 Z M 205.296875 72.542969 C 205.066406 72.386719 204.820312 72.253906 204.554688 72.164062 C 205.765625 71.320312 206.976562 70.480469 208.191406 69.636719 C 207.222656 70.609375 206.265625 71.578125 205.296875 72.542969 Z M 120.285156 98.878906 C 106.890625 109.613281 93.222656 120.011719 79.296875 130.058594 C 85.222656 124.277344 91.335938 118.6875 97.558594 113.226562 C 102.332031 109.035156 107.179688 104.925781 112.058594 100.851562 C 116.871094 97.179688 121.675781 93.492188 126.46875 89.796875 C 129.972656 87.101562 133.460938 84.394531 136.953125 81.6875 C 131.519531 87.523438 125.917969 93.222656 120.285156 98.878906 Z M 38.851562 148.695312 C 36.71875 150.261719 34.578125 151.8125 32.441406 153.371094 C 33.902344 151.996094 35.367188 150.640625 36.832031 149.28125 C 37.171875 149.214844 37.527344 149.066406 37.878906 148.800781 C 48.863281 140.609375 59.84375 132.421875 70.855469 124.269531 C 69.140625 125.78125 67.429688 127.304688 65.71875 128.832031 C 56.789062 135.488281 47.835938 142.113281 38.851562 148.695312 Z M 84.679688 92.296875 C 73.726562 99.738281 62.65625 107.039062 51.859375 114.667969 C 54.179688 112.351562 56.519531 110.050781 58.847656 107.746094 C 67.457031 102.585938 76.070312 97.4375 84.679688 92.296875 Z M 81.238281 74.078125 C 68.230469 85.21875 55.257812 96.390625 43.234375 108.5625 C 40.332031 110.972656 37.425781 113.375 34.523438 115.78125 C 27.378906 120.054688 20.234375 124.328125 13.078125 128.601562 C 6.9375 132.277344 0.789062 135.949219 -5.355469 139.628906 C -0.394531 134.101562 4.601562 128.609375 9.621094 123.140625 C 10.597656 123.972656 12.097656 124.195312 13.378906 123.089844 C 17.246094 119.742188 21.101562 116.390625 24.96875 113.042969 C 43.96875 100.40625 62.722656 87.414062 81.238281 74.078125 Z M 70.300781 108.695312 C 69.371094 109.5625 68.433594 110.429688 67.503906 111.304688 C 64.335938 113.257812 61.160156 115.203125 57.984375 117.136719 C 62.066406 114.296875 66.179688 111.492188 70.300781 108.695312 Z M 52.699219 148.597656 C 55.523438 145.875 58.363281 143.167969 61.242188 140.496094 C 59.835938 142.113281 58.492188 143.777344 57.265625 145.503906 C 55.746094 146.542969 54.222656 147.574219 52.699219 148.597656 Z M 59.347656 152.636719 C 59.917969 151.582031 60.550781 150.550781 61.226562 149.550781 C 70.917969 142.921875 80.5 136.132812 89.960938 129.179688 C 84.488281 134.664062 79.007812 140.140625 73.535156 145.625 C 68.886719 148.125 64.15625 150.46875 59.347656 152.636719 Z M 53.917969 173.25 C 55.578125 171.601562 57.234375 169.945312 58.894531 168.300781 C 77.898438 155.550781 97.589844 143.835938 117.027344 131.742188 C 99.144531 143.515625 81.253906 155.292969 63.367188 167.066406 C 60.238281 169.136719 57.070312 171.1875 53.917969 173.25 Z M 117.710938 165.132812 C 117.339844 165.398438 116.96875 165.65625 116.585938 165.925781 C 116.667969 165.859375 116.75 165.792969 116.824219 165.726562 C 117.125 165.523438 117.421875 165.332031 117.710938 165.132812 Z M 133.050781 167.3125 C 132.566406 168.097656 132.085938 168.878906 131.609375 169.671875 C 124.21875 176.664062 116.78125 183.605469 109.316406 190.515625 C 103.457031 192.90625 97.535156 195.152344 91.574219 197.265625 C 105.515625 187.449219 119.40625 177.546875 133.050781 167.3125 Z M 127.554688 188.660156 C 127.742188 188.570312 127.933594 188.488281 128.121094 188.402344 C 127.851562 188.652344 127.578125 188.898438 127.308594 189.148438 C 127.390625 188.988281 127.472656 188.824219 127.554688 188.660156 Z M 209.386719 169.050781 C 209.433594 169.019531 209.46875 168.988281 209.515625 168.960938 C 196.820312 180.722656 183.613281 191.941406 170.199219 202.882812 C 175.085938 197.542969 179.949219 192.175781 184.78125 186.789062 C 192.984375 180.871094 201.1875 174.957031 209.386719 169.050781 Z M 150.308594 204.785156 C 168.570312 188.480469 186.753906 172.082031 204.851562 155.589844 C 196.976562 164.671875 189.027344 173.703125 181.003906 182.648438 C 170.773438 190.03125 160.542969 197.410156 150.308594 204.785156 Z M 150.308594 204.785156 " fill-opacity="1" fill-rule="nonzero"/></g></g><path fill="#fcf6f0" d="M 75.59375 101.847656 C 75.59375 101.847656 65.777344 97.015625 42.957031 100.316406 C 20.136719 103.625 8.285156 113.546875 7.644531 117.488281 C 7.003906 121.425781 11.085938 126.644531 16.945312 128.296875 C 22.8125 129.953125 42.445312 129.828125 42.445312 129.828125 C 42.445312 129.828125 30.464844 137.328125 21.027344 147.507812 C 11.59375 157.679688 5.734375 163.023438 5.09375 168.242188 C 4.453125 173.457031 5.984375 176.378906 11.59375 175.488281 C 17.199219 174.597656 42.058594 165.820312 42.058594 165.820312 C 42.058594 165.820312 33.132812 186.679688 32.117188 193.550781 C 31.097656 200.421875 39.378906 203.984375 45.628906 203.855469 C 51.875 203.730469 93.433594 194.1875 93.433594 194.1875 C 93.433594 194.1875 76.859375 178.035156 76.351562 162.898438 C 75.839844 147.761719 79.410156 133.261719 79.410156 133.261719 L 82.851562 116.597656 Z M 75.59375 101.847656 " fill-opacity="1" fill-rule="nonzero"/><path fill="#fcf6f0" d="M 195.550781 163.285156 C 195.550781 163.285156 213.394531 162.265625 223.335938 159.085938 C 233.277344 155.902344 231.882812 150.433594 230.601562 147.636719 C 229.332031 144.835938 219.640625 136.1875 221.167969 133.902344 C 222.699219 131.609375 237.742188 124.742188 236.082031 113.800781 C 234.425781 102.863281 213.261719 102.601562 210.207031 101.972656 C 207.148438 101.339844 207.148438 101.332031 207.148438 101.332031 C 207.148438 101.332031 215.945312 91.414062 216.839844 85.558594 C 217.730469 79.703125 212.503906 77.546875 203.328125 78.4375 C 194.152344 79.324219 170.1875 88.480469 167.382812 90.011719 C 164.578125 91.539062 161.902344 93.574219 161.902344 93.574219 C 161.902344 93.574219 172.988281 121.554688 178.214844 130.078125 C 183.445312 138.605469 195.550781 163.285156 195.550781 163.285156 Z M 195.550781 163.285156 " fill-opacity="1" fill-rule="nonzero"/><path fill="#fee27e" d="M 128.113281 110.113281 L 109.886719 91.800781 L 132.960938 85.441406 Z M 128.113281 110.113281 " fill-opacity="1" fill-rule="nonzero"/><path fill="#f97077" d="M 96.117188 61.398438 C 96.117188 61.398438 75.46875 51.226562 76.234375 36.46875 C 77 21.710938 95.097656 29.597656 98.414062 30.875 C 101.730469 32.140625 103.003906 34.433594 105.933594 31.761719 C 108.863281 29.09375 118.675781 10.90625 125.183594 15.097656 C 131.683594 19.296875 126.457031 32.394531 125.824219 37.105469 C 125.183594 41.808594 124.164062 48.933594 124.804688 50.335938 C 125.4375 51.730469 99.433594 57.199219 96.117188 61.398438 Z M 96.117188 61.398438 " fill-opacity="1" fill-rule="nonzero"/><path fill="#483a00" d="M 107.300781 203.78125 C 102.800781 201.3125 98.691406 199.054688 94.214844 196.601562 C 87.535156 198.75 80.257812 200.140625 72.992188 201.535156 C 63.597656 203.335938 54.199219 205.191406 44.625 205.726562 C 42.496094 205.84375 40.316406 205.816406 38.222656 205.464844 C 33.058594 204.597656 30.101562 201.339844 29.878906 196.125 C 29.78125 193.882812 30.152344 191.570312 30.644531 189.363281 C 31.804688 184.1875 34.085938 179.414062 36.382812 174.660156 C 37.113281 173.152344 37.765625 171.609375 38.414062 170.183594 C 37.515625 169.242188 36.898438 169.886719 36.300781 170.117188 C 31.898438 171.792969 27.566406 173.632812 23.109375 175.164062 C 20.425781 176.082031 17.59375 176.601562 14.796875 177.175781 C 12.246094 177.695312 9.660156 177.566406 7.140625 176.945312 C 3.585938 176.0625 1.644531 173.34375 1.792969 169.703125 C 1.890625 167.355469 2.746094 165.257812 3.835938 163.238281 C 6.015625 159.1875 8.886719 155.648438 11.957031 152.25 C 17.90625 145.660156 24.546875 139.820312 31.535156 134.359375 C 32.753906 133.410156 33.945312 132.417969 35.367188 131.273438 C 34.382812 130.265625 33.371094 130.546875 32.496094 130.589844 C 27.195312 130.859375 21.90625 130.671875 16.695312 129.714844 C 14.46875 129.308594 12.21875 128.65625 10.195312 127.660156 C 4.425781 124.832031 3.070312 119.351562 6.847656 114.15625 C 8.089844 112.449219 9.652344 110.882812 11.347656 109.628906 C 13.628906 107.945312 16.078125 106.386719 18.65625 105.199219 C 33.089844 98.566406 48.25 95.804688 64.105469 97.164062 C 66.78125 97.394531 69.414062 98.082031 72.367188 98.617188 C 72.863281 96.503906 72.300781 94.386719 72.5 92.332031 C 72.695312 90.351562 72.851562 88.347656 73.265625 86.414062 C 73.71875 84.335938 74.320312 82.257812 75.109375 80.289062 C 75.90625 78.316406 76.902344 76.402344 78.019531 74.585938 C 79.125 72.765625 80.40625 71.03125 81.765625 69.382812 C 83.03125 67.847656 84.441406 66.414062 85.890625 65.050781 C 87.4375 63.59375 89.105469 62.261719 90.972656 60.65625 C 90.125 59.929688 89.4375 59.285156 88.703125 58.71875 C 85.511719 56.292969 82.515625 53.660156 79.988281 50.527344 C 78.003906 48.066406 76.402344 45.386719 75.320312 42.402344 C 74.253906 39.503906 74.152344 36.550781 74.804688 33.558594 C 75.847656 28.816406 79.496094 25.558594 84.359375 25.078125 C 87.691406 24.746094 90.933594 25.257812 94.019531 26.511719 C 96.785156 27.628906 99.5 28.882812 102.242188 30.085938 C 104.058594 29.574219 105.011719 28.082031 106.132812 26.828125 C 108.617188 24.078125 110.972656 21.199219 113.5625 18.546875 C 115.144531 16.929688 116.914062 15.410156 118.839844 14.230469 C 124.171875 10.972656 128.707031 12.929688 130.144531 19.015625 C 130.910156 22.25 130.878906 25.53125 130.03125 28.757812 C 129.234375 31.792969 128.34375 34.796875 127.527344 37.824219 C 127.003906 39.746094 126.484375 41.675781 126.0625 43.628906 C 125.667969 45.445312 125.578125 47.292969 126.203125 49.347656 C 127.429688 49.460938 128.679688 49.609375 129.929688 49.691406 C 134.804688 50.003906 139.550781 50.886719 144.070312 52.835938 C 151.789062 56.175781 157.269531 61.679688 160.546875 69.390625 C 162.636719 74.300781 163.589844 79.46875 163.984375 84.757812 C 164.089844 86.152344 163.777344 87.621094 164.855469 89.03125 C 166.109375 88.429688 167.382812 87.816406 168.652344 87.199219 C 177.5625 82.933594 186.699219 79.28125 196.390625 77.1875 C 200.726562 76.253906 205.089844 75.75 209.574219 76.097656 C 216.058594 76.609375 221.1875 81.433594 217.425781 89.839844 C 216.390625 92.148438 214.71875 94.179688 213.304688 96.316406 C 212.703125 97.230469 212.035156 98.089844 211.105469 99.382812 C 212.957031 99.605469 214.308594 99.804688 215.679688 99.925781 C 219.390625 100.25 223.0625 100.726562 226.617188 101.914062 C 229.480469 102.871094 232.1875 104.136719 234.519531 106.089844 C 238.566406 109.464844 241.042969 114.949219 237.429688 121.425781 C 235.449219 124.972656 232.660156 127.816406 229.710938 130.523438 C 227.828125 132.261719 225.878906 133.929688 223.753906 135.816406 C 224.328125 136.5625 224.742188 137.261719 225.300781 137.816406 C 226.519531 139.019531 227.933594 140.042969 229.035156 141.34375 C 230.3125 142.855469 231.582031 144.460938 232.417969 146.234375 C 234.511719 150.699219 233.421875 154.964844 229.636719 158.132812 C 227.628906 159.8125 225.300781 160.953125 222.800781 161.59375 C 219.078125 162.550781 215.308594 163.386719 211.523438 164.054688 C 207.304688 164.789062 203.039062 165.257812 198.804688 165.878906 C 197.699219 166.042969 196.605469 166.332031 195.625 166.542969 C 191.726562 177.960938 193.3125 176.773438 183.488281 189.230469 C 185.988281 192.800781 188.878906 196.066406 192.398438 198.9375 C 194.335938 197.855469 196.167969 196.785156 198.039062 195.789062 C 198.917969 195.324219 199.847656 194.9375 200.800781 194.625 C 202.070312 194.210938 203.164062 194.699219 203.660156 195.777344 C 204.152344 196.824219 203.804688 197.988281 202.679688 198.730469 C 201.964844 199.195312 201.171875 199.53125 200.421875 199.9375 C 199.3125 200.554688 198.21875 201.183594 196.84375 201.964844 C 197.707031 203.011719 198.449219 203.820312 199.097656 204.695312 C 199.972656 205.882812 199.9375 206.949219 199.097656 207.78125 C 198.269531 208.597656 197.199219 208.703125 195.964844 207.980469 C 195.140625 207.5 194.382812 206.90625 193.5625 206.34375 C 192.089844 207.484375 191.832031 209.132812 191.050781 210.453125 C 190.171875 211.945312 189.117188 212.574219 188.007812 212.25 C 186.699219 211.863281 186.089844 210.421875 186.730469 208.695312 C 187.414062 206.832031 188.308594 205.050781 189.238281 202.9375 C 187.628906 201.28125 185.921875 199.605469 184.3125 197.839844 C 182.691406 196.058594 181.183594 194.179688 179.636719 192.363281 C 158.882812 205.539062 136.65625 210.511719 112.246094 205.304688 C 110.914062 207.023438 110.191406 209.15625 108.949219 211.238281 C 110.652344 213.597656 112.339844 215.871094 113.949219 218.199219 C 114.503906 219 115.003906 219.898438 115.277344 220.832031 C 115.523438 221.6875 115.109375 222.488281 114.3125 223.023438 C 113.496094 223.5625 112.617188 223.550781 111.941406 222.941406 C 111.101562 222.183594 110.394531 221.277344 109.671875 220.402344 C 108.527344 219 107.671875 217.347656 106.035156 215.980469 C 104.980469 217.167969 104.089844 218.238281 103.121094 219.230469 C 102.230469 220.144531 101.308594 221.050781 100.296875 221.820312 C 99.402344 222.503906 98.289062 222.308594 97.582031 221.5625 C 96.875 220.8125 96.660156 219.675781 97.238281 218.808594 C 97.789062 217.984375 98.496094 217.273438 99.152344 216.523438 C 102.46875 212.761719 105.171875 208.605469 107.300781 203.78125 Z M 126.089844 202.632812 C 141.023438 203.34375 157.007812 200.003906 171.792969 191.507812 C 173.761719 190.375 175.621094 189.015625 177.414062 187.597656 C 181.726562 184.1875 185.109375 180.03125 187.578125 175.082031 C 190.070312 170.109375 190.589844 164.746094 190.863281 159.375 C 191.191406 152.882812 189.734375 146.632812 187.386719 140.585938 C 184.835938 134.027344 181.363281 127.972656 177.019531 122.445312 C 174.023438 118.628906 170.839844 114.964844 167.746094 111.226562 C 166.289062 109.464844 164.800781 107.738281 163.410156 105.925781 C 160.90625 102.660156 159.589844 98.960938 159.539062 94.820312 C 159.507812 92.542969 159.425781 90.253906 159.359375 87.976562 C 159.210938 83.257812 158.667969 78.597656 157.21875 74.078125 C 154.132812 64.484375 147.65625 58.492188 137.957031 55.761719 C 131.042969 53.816406 124.105469 54.128906 117.136719 55.179688 C 108.644531 56.464844 100.972656 59.796875 93.96875 64.671875 C 87.507812 69.167969 82.488281 74.882812 79.503906 82.273438 C 75.699219 91.695312 76.851562 100.695312 81.75 109.378906 C 82.285156 110.320312 83.117188 111.210938 84.019531 111.8125 C 86.457031 113.4375 86.464844 113.363281 86.09375 116.144531 C 85.566406 120.136719 84.234375 123.890625 82.894531 127.652344 C 80.0625 135.613281 78.023438 143.746094 77.644531 152.234375 C 76.984375 167.140625 82.078125 179.59375 93.417969 189.433594 C 102.214844 197.082031 112.503906 201.207031 126.089844 202.632812 Z M 81.089844 116.558594 C 78.410156 113.488281 76.53125 110.460938 75.257812 107.105469 C 74.640625 105.480469 73.535156 104.507812 71.988281 104.003906 C 70.089844 103.390625 68.1875 102.730469 66.238281 102.371094 C 59.570312 101.171875 52.878906 101.394531 46.191406 102.292969 C 37.515625 103.457031 29.082031 105.496094 21.140625 109.273438 C 18.167969 110.691406 15.257812 112.25 12.878906 114.554688 C 11.777344 115.625 10.789062 116.910156 10.074219 118.265625 C 9.152344 120.015625 9.660156 121.679688 11.296875 122.742188 C 12.351562 123.429688 13.5625 123.957031 14.769531 124.34375 C 18.480469 125.523438 22.308594 125.925781 26.191406 125.871094 C 30.613281 125.8125 35.039062 125.714844 39.460938 125.679688 C 40.601562 125.671875 41.769531 125.695312 42.859375 125.945312 C 44.90625 126.414062 45.632812 128.648438 44.273438 130.285156 C 43.558594 131.15625 42.652344 131.890625 41.761719 132.585938 C 39.394531 134.425781 36.972656 136.199219 34.605469 138.035156 C 27.839844 143.300781 21.339844 148.882812 15.667969 155.328125 C 13.222656 158.105469 10.996094 161.085938 8.910156 164.136719 C 7.890625 165.628906 7.273438 167.453125 6.746094 169.203125 C 6.253906 170.828125 7.078125 171.964844 8.714844 172.417969 C 11.140625 173.085938 13.59375 172.722656 15.914062 172.105469 C 20.175781 170.964844 24.414062 169.664062 28.5625 168.152344 C 32.042969 166.882812 35.367188 165.191406 38.792969 163.765625 C 39.96875 163.277344 41.21875 162.867188 42.464844 162.710938 C 44.183594 162.496094 45.558594 163.871094 45.375 165.582031 C 45.253906 166.691406 44.90625 167.808594 44.453125 168.832031 C 43.300781 171.4375 41.960938 173.960938 40.824219 176.574219 C 39.164062 180.351562 37.460938 184.125 36.070312 188.007812 C 35.3125 190.121094 34.941406 192.429688 34.761719 194.683594 C 34.445312 198.640625 35.796875 200.308594 39.671875 200.71875 C 42.066406 200.96875 44.527344 200.992188 46.929688 200.753906 C 60.589844 199.410156 73.996094 196.578125 87.371094 193.609375 C 88.003906 193.46875 88.589844 193.105469 89.140625 192.867188 C 89.089844 192.480469 89.128906 192.296875 89.050781 192.207031 C 88.09375 191.152344 87.125 190.113281 86.152344 189.074219 C 77.230469 179.59375 72.929688 168.320312 72.835938 155.335938 C 72.777344 147.121094 74.179688 139.175781 76.613281 131.378906 C 77.675781 127.980469 78.878906 124.625 79.949219 121.226562 C 80.40625 119.75 80.6875 118.214844 81.089844 116.558594 Z M 195.996094 161.050781 C 196.828125 161.078125 197.527344 161.207031 198.203125 161.117188 C 203.289062 160.425781 208.390625 159.796875 213.457031 158.9375 C 216.398438 158.429688 219.316406 157.660156 222.15625 156.746094 C 223.746094 156.234375 225.300781 155.359375 226.640625 154.34375 C 228.652344 152.808594 229.152344 150.5 228.066406 148.214844 C 227.464844 146.953125 226.601562 145.765625 225.664062 144.71875 C 224.527344 143.457031 223.179688 142.375 221.917969 141.214844 C 217.566406 137.246094 217.542969 135.058594 221.871094 131.050781 C 223.753906 129.308594 225.820312 127.75 227.605469 125.917969 C 229.488281 123.988281 231.375 121.984375 232.824219 119.726562 C 235.546875 115.507812 234.664062 111.964844 230.503906 109.058594 C 228.132812 107.394531 225.472656 106.304688 222.636719 105.84375 C 218.988281 105.25 215.292969 104.925781 211.609375 104.496094 C 210.199219 104.332031 208.734375 104.367188 207.371094 104.027344 C 204.679688 103.34375 203.765625 101.125 205.1875 98.765625 C 205.914062 97.558594 206.957031 96.539062 207.820312 95.40625 C 209.292969 93.484375 210.867188 91.628906 212.144531 89.582031 C 212.957031 88.289062 213.476562 86.738281 213.796875 85.238281 C 214.175781 83.457031 213.375 82.117188 211.640625 81.566406 C 210.167969 81.097656 208.570312 80.714844 207.046875 80.789062 C 204.0625 80.921875 201.050781 81.171875 198.128906 81.765625 C 187.265625 83.949219 177.144531 88.164062 167.375 93.277344 C 166.386719 93.796875 165.464844 94.449219 164.625 94.96875 C 164.230469 97.59375 165.046875 99.714844 166.3125 101.644531 C 167.398438 103.308594 168.648438 104.878906 169.917969 106.417969 C 172.742188 109.816406 175.664062 113.140625 178.476562 116.542969 C 182.9375 121.953125 186.769531 127.769531 189.792969 134.117188 C 193.527344 141.945312 195.644531 150.144531 195.789062 158.832031 C 195.808594 159.515625 195.921875 160.210938 195.996094 161.050781 Z M 121.003906 49.742188 C 120.609375 43.441406 122.441406 38.039062 124.03125 32.566406 C 124.863281 29.707031 125.28125 26.734375 125.769531 23.785156 C 126.054688 22.074219 125.703125 20.375 125.019531 18.769531 C 124.589844 17.769531 123.496094 17.234375 122.550781 17.761719 C 121.070312 18.59375 119.53125 19.445312 118.335938 20.609375 C 115.976562 22.890625 113.828125 25.367188 111.613281 27.792969 C 110.265625 29.269531 109.046875 30.867188 107.628906 32.261719 C 104.429688 35.414062 102.460938 35.636719 98.445312 33.757812 C 95.863281 32.558594 93.253906 31.378906 90.5625 30.472656 C 88.976562 29.9375 87.199219 29.714844 85.519531 29.765625 C 82.210938 29.878906 80.167969 31.578125 79.484375 34.804688 C 79.171875 36.289062 79.246094 37.929688 79.519531 39.4375 C 80.039062 42.292969 81.570312 44.734375 83.328125 47.003906 C 86.144531 50.65625 89.625 53.601562 93.445312 56.144531 C 94.257812 56.679688 95.171875 57.058594 96.175781 57.570312 C 103.753906 53.246094 111.925781 50.863281 121.003906 49.742188 Z M 121.003906 49.742188 " fill-opacity="1" fill-rule="nonzero"/><path fill="#483a00" d="M 134.738281 93.246094 C 134.015625 97.460938 133.324219 101.683594 132.558594 105.890625 C 132.359375 107.003906 132.03125 108.125 131.585938 109.160156 C 130.582031 111.523438 128.542969 112.261719 126.367188 111.007812 C 125.140625 110.304688 124 109.398438 122.96875 108.433594 C 120.253906 105.90625 117.628906 103.277344 114.945312 100.71875 C 112.878906 98.746094 110.773438 96.824219 108.699219 94.863281 C 106.59375 92.875 106.816406 90.398438 109.285156 88.882812 C 110.007812 88.445312 110.847656 88.171875 111.664062 87.933594 C 117.144531 86.332031 122.640625 84.757812 128.128906 83.167969 C 128.402344 83.089844 128.671875 82.992188 128.953125 82.933594 C 133.035156 82.050781 134.894531 83.445312 135.019531 87.695312 C 135.074219 89.535156 134.714844 91.382812 134.546875 93.222656 C 134.613281 93.222656 134.671875 93.230469 134.738281 93.246094 Z M 127.214844 105.800781 C 129.109375 99.992188 130.210938 91.785156 129.695312 88.105469 C 125.265625 88.5625 116.378906 91.265625 113.96875 92.941406 C 118.203125 97.171875 122.320312 101.476562 127.214844 105.800781 Z M 127.214844 105.800781 " fill-opacity="1" fill-rule="nonzero"/><path fill="#483a00" d="M 127.445312 75.273438 C 125.710938 75.042969 124.433594 73.375 124.617188 71.585938 C 124.835938 69.554688 126.886719 67.882812 128.820312 68.167969 C 130.328125 68.390625 131.816406 70.339844 131.699219 71.941406 C 131.546875 73.902344 129.460938 75.542969 127.445312 75.273438 Z M 127.445312 75.273438 " fill-opacity="1" fill-rule="nonzero"/><path fill="#483a00" d="M 107.1875 72.839844 C 108.832031 73.035156 110.347656 75.453125 110.109375 77.492188 C 109.902344 79.238281 108.265625 80.585938 106.527344 80.453125 C 104.503906 80.289062 103.113281 78.382812 103.390625 76.148438 C 103.621094 74.265625 105.484375 72.640625 107.1875 72.839844 Z M 107.1875 72.839844 " fill-opacity="1" fill-rule="nonzero"/></svg>